<svg width="9" height="5" viewBox="0 0 9 5" fill="none" xmlns="http://www.w3.org/2000/svg">
<path d="M3.95076 4.68335L0.156984 0.889575C0.104656 0.837247 0.0654099 0.780559 0.039246 0.719509C0.013082 0.65846 0 0.59305 0 0.52328C0 0.383738 0.0479673 0.26164 0.143902 0.156984C0.239836 0.052328 0.366296 0 0.52328 0H8.47713C8.63411 0 8.76057 0.052328 8.85651 0.156984C8.95244 0.26164 9.00041 0.383738 9.00041 0.52328C9.00041 0.558165 8.94808 0.680263 8.84342 0.889575L5.04965 4.68335C4.96243 4.77057 4.87522 4.83162 4.78801 4.8665C4.7008 4.90139 4.60486 4.91883 4.5002 4.91883C4.39555 4.91883 4.29961 4.90139 4.2124 4.8665C4.12519 4.83162 4.03797 4.77057 3.95076 4.68335Z" fill="#333333"/>
</svg>
